
 
http://www.imdb.com/title/tt2250234/


A secret cabal, The Shadow, works to bring about the return of Goth Azul - the Undead God - in the rich world of SAGA, populated by elves, orcs, dwarves and dragons. 



Director:
 John Lyde 

Writers:
 Jason Faller, Kynan Griffin 

Stars:
 Danielle Chuchran, Richard McWilliams, Paul D. Hunt

Genres:
  Action |  Fantasy 

Country:
 USA 

Language:
 English 



Format                                   : AVI
Format/Info                              : Audio Video Interleave
File size                                : 694 MiB
Duration                                 : 1h 45mn
Overall bit rate                         : 922 Kbps

Video
ID                                       : 0
Format                                   : MPEG-4 Visual
Format profile                           : Advanced Simple@L5
Format settings, BVOP                    : 2
Format settings, QPel                    : No
Format settings, GMC                     : No warppoints
Format settings, Matrix                  : Default (H.263)
Codec ID                                 : XVID
Codec ID/Hint                            : XviD
Duration                                 : 1h 45mn
Bit rate                                 : 788 Kbps
Width                                    : 640 pixels
Height                                   : 352 pixels
Display aspect ratio                     : 16:9
Frame rate                               : 23.976 fps
Color space                              : YUV
Chroma subsampling                       : 4:2:0
Bit depth                                : 8 bits
Scan type                                : Progressive
Compression mode                         : Lossy
Bits/(Pixel*Frame)                       : 0.146
Stream size                              : 593 MiB (85%)
Writing library                          : XviD 1.2.1 (UTC 2008-12-04)

Audio
ID                                       : 1
Format                                   : MPEG Audio
Format version                           : Version 1
Format profile                           : Layer 3
Mode                                     : Joint stereo
Mode extension                           : MS Stereo
Codec ID                                 : 55
Codec ID/Hint                            : MP3
Duration                                 : 1h 45mn
Bit rate mode                            : Constant
Bit rate                                 : 128 Kbps
Channel(s)                               : 2 channels
Sampling rate                            : 48.0 KHz
Compression mode                         : Lossy
Stream size                              : 96.3 MiB (14%)
Alignment                                : Aligned on interleaves
Interleave, duration                     : 167 ms (4.00 video frames)
Interleave, preload duration             : 216 ms
Title                                    : encounters-scthshca_720p - [1] English_audio
Writing library                          : LAME3.99r
Encoding settings                        : -m j -V 4 -q 2 -lowpass 17 -b 128




screens


    	http://addpix.net/viewer.php?file=71892991861136493431.jpg
    	http://addpix.net/viewer.php?file=95996102336600044706.jpg
    	http://addpix.net/viewer.php?file=70636269830784461377.jpg
    	http://addpix.net/viewer.php?file=38604883950225253025.jpg
    	http://addpix.net/viewer.php?file=55609502164632993162.jpg
    	http://addpix.net/viewer.php?file=43395647387383451150.jpg